<mxfile host="drawio-plugin" modified="2021-03-18T04:34:32.066Z" agent="5.0 (Macintosh; Intel Mac OS X 10_16_0) AppleWebKit/537.36 (KHTML, like Gecko) Chrome/84.0.4147.105 Safari/537.36" version="13.7.9" etag="SLQj69kNLTDjeUsIgLD1" type="embed"><diagram id="0blczrsi-l7uzIwCsz-E" name="Page-1"><mxGraphModel dx="904" dy="633" grid="1" gridSize="10" guides="1" tooltips="1" connect="1" arrows="1" fold="1" page="1" pageScale="1" pageWidth="850" pageHeight="1100" math="0" shadow="0"><root><mxCell id="0"/><mxCell id="1" parent="0"/><mxCell id="6" style="edgeStyle=orthogonalEdgeStyle;rounded=0;orthogonalLoop=1;jettySize=auto;html=1;" edge="1" parent="1"><mxGeometry relative="1" as="geometry"><mxPoint x="370" y="120" as="targetPoint"/><mxPoint x="170" y="120" as="sourcePoint"/></mxGeometry></mxCell><mxCell id="7" value="Update user1 to this details" style="edgeLabel;html=1;align=center;verticalAlign=middle;resizable=0;points=[];" vertex="1" connectable="0" parent="6"><mxGeometry x="-0.25" y="-3" relative="1" as="geometry"><mxPoint x="25" y="7" as="offset"/></mxGeometry></mxCell><mxCell id="9" value="" style="rounded=0;whiteSpace=wrap;html=1;" vertex="1" parent="1"><mxGeometry x="50" y="70" width="120" height="310" as="geometry"/></mxCell><mxCell id="10" value="" style="rounded=0;whiteSpace=wrap;html=1;" vertex="1" parent="1"><mxGeometry x="370" y="72" width="120" height="310" as="geometry"/></mxCell><mxCell id="11" value="" style="endArrow=classic;html=1;exitX=-0.033;exitY=0.345;exitDx=0;exitDy=0;exitPerimeter=0;entryX=1.017;entryY=0.355;entryDx=0;entryDy=0;entryPerimeter=0;" edge="1" parent="1" source="10" target="9"><mxGeometry width="50" height="50" relative="1" as="geometry"><mxPoint x="200" y="230" as="sourcePoint"/><mxPoint x="250" y="180" as="targetPoint"/></mxGeometry></mxCell><mxCell id="12" value="Updated" style="edgeLabel;html=1;align=center;verticalAlign=middle;resizable=0;points=[];" vertex="1" connectable="0" parent="11"><mxGeometry x="-0.0612" y="5" relative="1" as="geometry"><mxPoint as="offset"/></mxGeometry></mxCell><mxCell id="13" value="Backend" style="text;html=1;strokeColor=none;fillColor=none;align=center;verticalAlign=middle;whiteSpace=wrap;rounded=0;" vertex="1" parent="1"><mxGeometry x="410" y="40" width="40" height="20" as="geometry"/></mxCell><mxCell id="14" value="Frontend" style="text;html=1;strokeColor=none;fillColor=none;align=center;verticalAlign=middle;whiteSpace=wrap;rounded=0;" vertex="1" parent="1"><mxGeometry x="90" y="40" width="40" height="20" as="geometry"/></mxCell><mxCell id="15" style="edgeStyle=orthogonalEdgeStyle;rounded=0;orthogonalLoop=1;jettySize=auto;html=1;" edge="1" parent="1"><mxGeometry relative="1" as="geometry"><mxPoint x="370" y="250" as="targetPoint"/><mxPoint x="170" y="250" as="sourcePoint"/></mxGeometry></mxCell><mxCell id="16" value="Give me updated user1 details" style="edgeLabel;html=1;align=center;verticalAlign=middle;resizable=0;points=[];" vertex="1" connectable="0" parent="15"><mxGeometry x="-0.25" y="-3" relative="1" as="geometry"><mxPoint x="25" y="7" as="offset"/></mxGeometry></mxCell><mxCell id="17" value="" style="endArrow=classic;html=1;exitX=-0.033;exitY=0.345;exitDx=0;exitDy=0;exitPerimeter=0;entryX=1.017;entryY=0.355;entryDx=0;entryDy=0;entryPerimeter=0;" edge="1" parent="1"><mxGeometry width="50" height="50" relative="1" as="geometry"><mxPoint x="363.99999999999994" y="310.00000000000006" as="sourcePoint"/><mxPoint x="169.99999999999997" y="311.09999999999997" as="targetPoint"/></mxGeometry></mxCell><mxCell id="18" value="User1 details" style="edgeLabel;html=1;align=center;verticalAlign=middle;resizable=0;points=[];" vertex="1" connectable="0" parent="17"><mxGeometry x="-0.0612" y="5" relative="1" as="geometry"><mxPoint as="offset"/></mxGeometry></mxCell></root></mxGraphModel></diagram></mxfile>